HIERARCHY
ROOT Hips
{
  OFFSET 90.7885 88.945 -76.2838
  CHANNELS 6 Xposition Yposition Zposition Zrotation Xrotation Yrotation
  JOINT LeftUpLeg
  {
    OFFSET 8.64259 1.95398 -2.38835
    CHANNELS 3 Zrotation Xrotation Yrotation
    JOINT LeftLeg
    {
      OFFSET 43.7702 0 0
      CHANNELS 3 Zrotation Xrotation Yrotation
      JOINT LeftFoot
      {
        OFFSET 40.6238 0 0
        CHANNELS 3 Zrotation Xrotation Yrotation
        JOINT LeftToeBase
        {
          OFFSET 12.7242 0 0
          CHANNELS 3 Zrotation Xrotation Yrotation
          End Site
          {
            OFFSET 0 0 0
          }
        }
      }
    }
  }
  JOINT RightUpLeg
  {
    OFFSET -8.2249 1.95398 -2.59336
    CHANNELS 3 Zrotation Xrotation Yrotation
    JOINT RightLeg
    {
      OFFSET 43.5653 0 0
      CHANNELS 3 Zrotation Xrotation Yrotation
      JOINT RightFoot
      {
        OFFSET 40.6238 0 0
        CHANNELS 3 Zrotation Xrotation Yrotation
        JOINT RightToeBase
        {
          OFFSET 12.7242 0 0
          CHANNELS 3 Zrotation Xrotation Yrotation
          End Site
          {
            OFFSET 0 0 0
          }
        }
      }
    }
  }
  JOINT Spine
  {
    OFFSET 0.165834 0.87714 6.61349
    CHANNELS 3 Zrotation Xrotation Yrotation
    JOINT Spine1
    {
      OFFSET 7.38963 1.71661e-005 0
      CHANNELS 3 Zrotation Xrotation Yrotation
      JOINT Spine2
      {
        OFFSET 11.9445 1.14441e-005 0
        CHANNELS 3 Zrotation Xrotation Yrotation
        JOINT Spine3
        {
          OFFSET 14.7254 4.19617e-005 0
          CHANNELS 3 Zrotation Xrotation Yrotation
          JOINT Spine4
          {
            OFFSET 10.9679 0 0
            CHANNELS 3 Zrotation Xrotation Yrotation
            JOINT RightShoulder
            {
              OFFSET 2.46616 -1.6653 3.69651
              CHANNELS 3 Zrotation Xrotation Yrotation
              JOINT RightArm
              {
                OFFSET 13.0012 0 0
                CHANNELS 3 Zrotation Xrotation Yrotation
                JOINT RightForeArm
                {
                  OFFSET 28.7848 1.52588e-005 0
                  CHANNELS 3 Zrotation Xrotation Yrotation
                  JOINT RightHand
                  {
                    OFFSET 26.5688 1.52588e-005 0
                    CHANNELS 3 Zrotation Xrotation Yrotation
                    End Site
                    {
                      OFFSET 0 0 0
                    }
                  }
                }
              }
            }
            JOINT LeftShoulder
            {
              OFFSET 2.38034 -1.29275 -3.7523
              CHANNELS 3 Zrotation Xrotation Yrotation
              JOINT LeftArm
              {
                OFFSET 16.3182 6.10352e-005 0
                CHANNELS 3 Zrotation Xrotation Yrotation
                JOINT LeftForeArm
                {
                  OFFSET 27.0901 0 0
                  CHANNELS 3 Zrotation Xrotation Yrotation
                  JOINT LeftHand
                  {
                    OFFSET 24.5451 1.52588e-005 0
                    CHANNELS 3 Zrotation Xrotation Yrotation
                    End Site
                    {
                      OFFSET 0 0 0
                    }
                  }
                }
              }
            }
            JOINT Neck
            {
              OFFSET 5.0226 -0.0266342 0
              CHANNELS 3 Zrotation Xrotation Yrotation
              JOINT Head
              {
                OFFSET 6.69363 2.86102e-005 0
                CHANNELS 3 Zrotation Xrotation Yrotation
                End Site
                {
                  OFFSET 0 0 0
                }
              }
            }
          }
        }
      }
    }
  }
}
MOTION
Frames:	9
Frame Time:	0.0416667
-239.273 96.5948 209.855 91.5414 15.5682 88.4369 -178.804 -2.32668 90.1209 -5.01243 -6.85491 1.21625 68.6251 4.19218 -2.59711 17.4276 -5.1931 8.05577 171.918 4.26457 87.6845 -13.1045 -28.1282 -2.3992 66.4274 -3.44593 1.38686 20.9345 2.13693 -2.58012 -0.190648 7.14096 -90.1301 12.5915 -0.440684 -0.208557 0.920646 -0.449454 -0.188964 -21.6148 -0.357659 -0.331368 -1.60216 -0.357632 -0.331365 92.7061 -27.8628 -102.028 45.1389 -10.1955 -3.96266 4.17796 -21.039 -14.2972 -25.8806 -0.460718 -7.86275 -84.8877 -46.4711 85.94 -33.9015 14.0916 -2.30983 3.12632 -9.71094 -14.046 1.54928 -0.253847 -9.13806 -10.278 -32.1048 -24.172 -0.432146 -30.907 -9.01221 
-239.08 96.5014 209.932 91.8579 15.9515 88.5078 -178.56 -2.57286 90.5816 -5.15145 -6.95894 1.15983 68.6604 4.10843 -3.9581 17.8864 -2.19973 4.40083 171.894 3.28735 87.8166 -11.7682 -23.7712 -2.26714 67.9476 -3.89308 4.16255 19.0607 0.72158 0.562976 -0.196844 7.19471 -90.1391 12.484 -0.457052 -0.225195 0.813142 -0.466523 -0.204866 -21.7223 -0.368243 -0.352149 -1.70965 -0.368271 -0.352156 92.686 -28.1798 -101.967 44.8998 -10.4653 -4.19386 4.08819 -21.2472 -14.5042 -25.6186 -0.520644 -7.66168 -84.862 -46.3445 85.9627 -33.9182 13.0484 -2.02552 4.85381 -4.96658 -14.5804 -1.95461 -0.0996842 -7.86406 -10.2946 -32.081 -24.5908 -0.445187 -30.8636 -8.83713 
-238.849 96.5533 210.007 91.5531 16.6624 88.5138 -178.364 -2.35233 90.7579 -5.07841 -5.95698 0.948264 68.7777 4.18917 -3.5907 16.902 -2.18629 4.46833 171.926 3.7114 87.8783 -12.6769 -26.7559 -2.31278 67.0343 -3.68853 1.59339 20.8165 1.88245 -2.04132 -0.205469 7.15996 -90.153 12.5534 -0.481084 -0.249763 0.882548 -0.491611 -0.22836 -21.6529 -0.383768 -0.382802 -1.64026 -0.383792 -0.382811 92.7173 -27.9972 -101.962 45.0531 -10.0496 -4.10163 4.14452 -19.3835 -14.2907 -26.8301 -0.56879 -7.16448 -85.1457 -46.8032 85.5811 -33.6701 13.4881 -2.11508 4.17563 -6.89418 -14.2142 -1.26369 -0.127108 -8.71899 -10.1285 -32.1009 -24.3161 -0.339879 -30.8658 -8.91208 
-238.48 96.4872 210.106 91.4158 17.1546 88.4632 -178.1 -2.29692 90.9789 -5.15782 -4.92808 0.698598 68.8509 4.25654 -3.20843 16.7672 -2.01195 4.27389 171.9 3.58473 87.9213 -12.5023 -25.8851 -2.26357 67.91 -4.12725 0.64354 19.735 0.566192 0.728966 -0.21165 7.15011 -90.1723 12.573 -0.50252 -0.285648 0.902154 -0.514643 -0.26326 -21.6333 -0.393464 -0.423478 -1.62062 -0.393453 -0.423478 92.8877 -27.4152 -101.794 45.5114 -10.4131 -4.03643 4.0923 -18.4357 -14.3035 -30.5736 -1.07537 -4.3059 -84.9899 -47.6352 85.9403 -32.968 13.8769 -1.73164 3.7225 -7.98012 -14.904 -1.29417 -0.124059 -7.92624 -8.91007 -32.1244 -23.5649 -1.37559 -30.6197 -8.53805 
-238.012 96.5009 210.46 91.0308 18.0505 88.8768 -177.363 -1.91421 92.0337 -5.39134 -3.7856 0.233089 69.2146 4.3609 -4.28064 16.444 -2.47642 4.85392 172.367 3.60895 88.6313 -12.9703 -24.4731 -2.32988 67.7523 -3.91261 2.65089 20.5437 2.63367 -3.43813 -0.202162 7.13708 -90.1769 12.5991 -0.485907 -0.296767 0.92818 -0.498506 -0.275094 -21.6072 -0.374256 -0.429082 -1.59453 -0.374252 -0.42908 92.8254 -27.9004 -101.769 45.1692 -9.99436 -4.08533 4.34928 -20.8398 -14.2383 -27.3215 -0.314117 -8.40908 -85.2357 -46.7312 85.4302 -33.7056 13.5626 -2.10053 3.67992 -8.72888 -14.4274 -1.24356 -0.121139 -7.47868 -9.22254 -32.2996 -24.6983 -0.586522 -30.8256 -8.17005 
-237.276 96.501 210.743 91.5436 18.7949 88.698 -176.78 -2.65432 92.6228 -5.50919 -2.494 -0.0562808 69.6657 4.56025 -4.14611 17.5751 -2.69757 5.02467 172.161 2.56289 88.7772 -12.9031 -24.1009 -2.06667 68.6193 -4.37978 1.31931 19.4526 1.95061 -1.83912 -0.161726 7.19827 -90.1661 12.4768 -0.400121 -0.285584 0.805918 -0.412308 -0.267701 -21.7293 -0.295784 -0.392629 -1.71665 -0.295798 -0.392642 93.1243 -27.7395 -101.197 45.7242 -10.1112 -4.05153 4.58662 -19.992 -13.9747 -25.0735 -0.510728 -7.35956 -85.3713 -47.4437 85.3214 -32.6603 13.6562 -2.25356 3.55249 -8.94239 -14.3272 -0.431393 -0.129992 -6.68915 -9.21532 -32.4906 -24.5914 -0.6319 -31.0183 -8.20192 
-236.294 96.4344 211.034 92.7678 20.1421 87.8345 -176.009 -3.69348 93.1878 -6.35985 -0.447994 -0.528118 69.906 4.77602 -5.08565 18.2967 -4.23925 6.85895 171.658 1.04301 88.3294 -13.3049 -23.2415 -1.82684 69.786 -4.90188 1.26446 19.0672 2.06377 -1.95976 -0.167924 7.35112 -90.047 12.1718 -0.355946 -0.0535269 0.500943 -0.357966 -0.0378128 -22.0345 -0.323387 -0.158028 -2.0219 -0.323416 -0.158034 92.7073 -28.2521 -101.901 45.6192 -10.2122 -3.85514 4.82332 -19.0495 -14.09 -25.459 -0.271701 -8.29374 -85.1109 -46.9886 85.6615 -32.2745 13.651 -2.41535 3.29419 -9.90303 -14.4808 -0.47373 -0.140725 -7.41781 -9.75873 -32.1564 -24.7804 -0.413183 -30.8096 -8.50235 
-235.12 96.3175 211.589 93.9318 21.916 87.0726 -175.113 -4.5485 93.9407 -7.14169 2.22118 -0.785394 70.519 5.48001 -4.21983 18.0685 -2.79105 5.09452 171.466 -0.477328 88.5598 -14.2037 -21.38 -1.63668 71.0121 -5.38267 1.30036 18.8007 2.15447 -2.05845 -0.150573 7.47098 -89.9556 11.932 -0.278533 0.11847 0.261075 -0.273028 0.130606 -22.2743 -0.301251 0.0292878 -2.26168 -0.301227 0.0292823 92.2935 -28.5891 -102.641 45.7896 -11.005 -3.39276 4.46175 -20.2687 -14.6337 -27.9507 -0.818053 -5.85146 -85.3783 -47.3131 85.2916 -31.0687 13.4603 -2.46469 2.86728 -11.4812 -13.8728 0.726965 -0.223278 -9.16745 -10.382 -31.4566 -23.393 -0.584813 -30.3251 -9.64827 
-234.179 95.7748 212.086 94.4533 24.1151 86.2543 -174.546 -2.00371 94.296 -13.1756 4.11704 -0.59247 73.2996 6.83158 -4.62087 21.3146 -3.7397 6.05628 170.708 -0.00791181 88.1892 -16.7516 -19.9277 -0.909652 73.5335 -6.63087 -1.49439 18.3879 -0.811759 3.56062 -0.082057 7.51522 -89.8832 11.8435 -0.108213 0.244424 0.172537 -0.0973712 0.24895 -22.3625 -0.17667 0.200603 -2.34987 -0.176682 0.200599 91.8571 -28.7716 -103.472 45.3845 -10.9485 -3.39691 4.58659 -16.705 -14.8335 -28.1741 -0.470648 -6.5339 -85.5542 -47.6036 85.0605 -30.141 12.948 -2.07227 3.11489 -11.2855 -13.3468 1.9536 -0.21847 -7.75634 -9.41888 -28.6223 -18.6093 -1.10454 -27.5491 -9.90185 
